{"title":"BloodRayne.2005.DVDRip.SuspecT","uid":8067945,"size":734325472,"categoryP":"video","categoryS":"hd___movies","magnet":"?xt=urn:btih:901fbc784ed44378533f47e20b00ab08cfbadbb3&amp;dn=BloodRayne.2005.DVDRip.SuspecT&amp;tr=udp%3A%2F%2Ftracker.openbittorrent.com%3A80&amp;tr=udp%3A%2F%2Fopen.demonii.com%3A1337&amp;tr=udp%3A%2F%2Ftracker.coppersurfer.tk%3A6969&amp;tr=udp%3A%2F%2Fexodus.desync.com%3A6969","seeders":0,"leechers":1,"uploader":"Hr.Janno","files":-1,"time":1359217408,"description":"Format                                   : MPEG-4\nFormat profile                           : Base Media\nCodec ID                                 : isom\nFile size                                : 700 MiB\nDuration                                 : 1h 30mn\nOverall bit rate mode                    : Variable\nOverall bit rate                         : 1 080 Kbps\nEncoded date                             : UTC 2013-01-26 14:31:57\nTagged date                              : UTC 2013-01-26 14:31:57\n\nVideo\nID                                       : 1\nFormat                                   : AVC\nFormat/Info                              : Advanced Video Codec\nFormat profile                           : &lt;a class=&quot;__cf_email__&quot; href=&quot;/cdn-cgi/l/email-protection&quot; data-cfemail=&quot;733b1a141b333f405d43&quot;&gt;[email&amp;#160;protected]&lt;/a&gt;&lt;script cf-hash='f9e31' type=&quot;text/javascript&quot;&gt;\n/* &lt;![CDATA[ */!function(){try{var t=&quot;currentScript&quot;in document?document.currentScript:function(){for(var t=document.getElementsByTagName(&quot;script&quot;),e=t.length;e--;)if(t[e].getAttribute(&quot;cf-hash&quot;))return t[e]}();if(t&amp;&amp;t.previousSibling){var e,r,n,i,c=t.previousSibling,a=c.getAttribute(&quot;data-cfemail&quot;);if(a){for(e=&quot;&quot;,r=parseInt(a.substr(0,2),16),n=2;a.length-n;n+=2)i=parseInt(a.substr(n,2),16)^r,e+=String.fromCharCode(i);e=document.createTextNode(e),c.parentNode.replaceChild(e,c)}}}catch(u){}}();/* ]]&gt; */&lt;/script&gt;\nFormat settings, CABAC                   : Yes\nFormat settings, ReFrames                : 4 frames\nCodec ID                                 : avc1\nCodec ID/Info                            : Advanced Video Coding\nDuration                                 : 1h 30mn\nBit rate                                 : 997 Kbps\nMaximum bit rate                         : 6 071 Kbps\nWidth                                    : 704 pixels\nHeight                                   : 400 pixels\nDisplay aspect ratio                     : 16:9\nFrame rate mode                          : Constant\nFrame rate                               : 25.000 fps\nColor space                              : YUV\nChroma subsampling                       : 4:2:0\nBit depth                                : 8 bits\nScan type                                : Progressive\nBits/(Pixel*Frame)                       : 0.142\nStream size                              : 646 MiB (92%)\nTitle                                    : Video\nWriting library                          : x264\n\n\nAudio\nID                                       : 2\nFormat                                   : AAC\nFormat/Info                              : Advanced Audio Codec\nFormat profile                           : HE-AAC / LC\nCodec ID                                 : 40\nDuration                                 : 1h 30mn\nBit rate mode                            : Variable\nBit rate                                 : 80.2 Kbps\nMaximum bit rate                         : 98.6 Kbps\nChannel(s)                               : 2 channels\nChannel positions                        : Front: L R\nSampling rate                            : 48.0 KHz / 24.0 KHz\nCompression mode                         : Lossy\nDelay relative to video                  : 80ms\nStream size                              : 52.0 MiB (7%)\nLanguage                                 : English\nSubtitle                                 : Estonia (.SRT)","torrent":{"xt":"urn:btih:901fbc784ed44378533f47e20b00ab08cfbadbb3","amp;dn":"BloodRayne.2005.DVDRip.SuspecT","amp;tr":["udp%3A%2F%2Ftracker.openbittorrent.com%3A80","udp%3A%2F%2Fopen.demonii.com%3A1337","udp%3A%2F%2Ftracker.coppersurfer.tk%3A6969","udp%3A%2F%2Fexodus.desync.com%3A6969"],"infoHash":"901fbc784ed44378533f47e20b00ab08cfbadbb3","infoHashBuffer":{"type":"Buffer","data":[144,31,188,120,78,212,67,120,83,63,71,226,11,0,171,8,207,186,219,179]},"announce":[],"urlList":[]}}